<svg xmlns="http://www.w3.org/2000/svg" width="272" height="204" viewBox="0 0 272 204"><defs><style>.a{fill:#ffe9e4;}.b{fill:#fff;}.c{fill:#ffd1c7;}.d{fill:#3a36e4;}</style></defs><rect class="a" width="272" height="204"/><rect class="b" x="64.923" y="43.536" width="145.086" height="116.928"/><path class="c" d="M69.848,117.8,99,89.816a10.006,10.006,0,0,1,14.292.444l26.323,28.612a10.005,10.005,0,0,0,13.809.879l18.525-15.6a10.008,10.008,0,0,1,13.461.519l19.878,19.548a10,10,0,0,1,2.99,7.134v26.8a.588.588,0,0,1-.588.588H66.651l.12-33.755A10.009,10.009,0,0,1,69.848,117.8Z"/><circle class="c" cx="147.83" cy="82.739" r="10.363"/><path class="a" d="M174.911,87.172a4.04,4.04,0,0,1-4-4.592,15.448,15.448,0,0,1,3.17-7.779c3.63-4.371,13.357-6.539,18.339.414.364-6.74,4.934-14.238,15.4-12.541,6.279,1.018,9.134,6.869,9.371,11.353,6.429-6.833,15.013-.851,16.464,5.49a11.133,11.133,0,0,1,.155,4.337,4.015,4.015,0,0,1-3.977,3.318Z"/><path class="a" d="M42.875,130.627a4.632,4.632,0,0,1-4.775-5.142,16.724,16.724,0,0,1,3.781-8.709c4.329-4.894,15.93-7.321,21.871.464.434-7.546,5.884-15.941,18.362-14.041,7.488,1.14,10.894,7.69,11.176,12.71,7.667-7.649,17.9-.952,19.635,6.147a11.691,11.691,0,0,1,.185,4.856,4.715,4.715,0,0,1-4.742,3.715Z"/><path class="d" d="M210.01,161.964H64.923a1.5,1.5,0,0,1-1.5-1.5V43.536a1.5,1.5,0,0,1,1.5-1.5H210.01a1.5,1.5,0,0,1,1.5,1.5V160.464A1.5,1.5,0,0,1,210.01,161.964Zm-143.587-3H208.51V45.036H66.423Z"/></svg>