<svg xmlns="http://www.w3.org/2000/svg" width="272" height="204" viewBox="0 0 272 204"><defs><style>.a{fill:#ffe9e4;}.b{fill:#fef9db;}.c{fill:#ffd1c7;}.d{fill:#3a36e4;}.e{fill:#fff493;}</style></defs><rect class="a" width="272" height="204"/><rect class="b" width="272" height="204"/><polygon class="c" points="94.053 67.399 96.362 63.177 98.672 67.399 102.894 69.709 98.672 72.018 96.362 76.24 94.053 72.018 89.83 69.709 94.053 67.399"/><path class="d" d="M96.362,77.74a1.5,1.5,0,0,1-1.316-.78l-2.1-3.837-3.837-2.1a1.5,1.5,0,0,1,0-2.632l3.837-2.1,2.1-3.837a1.5,1.5,0,0,1,2.633,0l2.1,3.837,3.836,2.1a1.5,1.5,0,0,1,0,2.632l-3.836,2.1-2.1,3.837A1.5,1.5,0,0,1,96.362,77.74Zm-3.406-8.031,1.816.992a1.5,1.5,0,0,1,.6.6l.993,1.816.993-1.816a1.5,1.5,0,0,1,.6-.6l1.816-.992-1.816-.993a1.5,1.5,0,0,1-.6-.6L96.362,66.3l-.993,1.816a1.5,1.5,0,0,1-.6.6Zm1.1-2.31h0Z"/><polygon class="c" points="139.002 145.729 141.433 141.283 143.865 145.729 148.312 148.161 143.865 150.593 141.433 155.039 139.002 150.593 134.555 148.161 139.002 145.729"/><path class="d" d="M141.434,156.539a1.5,1.5,0,0,1-1.317-.78L137.9,151.7l-4.06-2.22a1.5,1.5,0,0,1,0-2.633l4.06-2.221,2.221-4.061a1.5,1.5,0,0,1,2.633,0l2.221,4.061,4.06,2.221a1.5,1.5,0,0,1,0,2.633l-4.06,2.22-2.221,4.061A1.5,1.5,0,0,1,141.434,156.539Zm-3.752-8.378,2.04,1.115a1.5,1.5,0,0,1,.6.6l1.116,2.04,1.115-2.04a1.5,1.5,0,0,1,.6-.6l2.04-1.115-2.04-1.115a1.5,1.5,0,0,1-.6-.6l-1.115-2.04-1.116,2.04a1.5,1.5,0,0,1-.6.6Zm1.32-2.432h0Z"/><polygon class="c" points="170.861 119.909 175.555 111.326 180.249 119.909 188.832 124.603 180.249 129.297 175.555 137.88 170.861 129.297 162.278 124.603 170.861 119.909"/><path class="d" d="M175.555,139.38a1.5,1.5,0,0,1-1.317-.78l-4.483-8.2-8.2-4.483a1.5,1.5,0,0,1,0-2.633l8.2-4.483,4.483-8.2a1.5,1.5,0,0,1,2.633,0l4.483,8.2,8.2,4.483a1.5,1.5,0,0,1,0,2.633l-8.2,4.483-4.483,8.2A1.5,1.5,0,0,1,175.555,139.38ZM165.4,124.6l6.176,3.377a1.5,1.5,0,0,1,.6.6l3.378,6.177,3.378-6.177a1.5,1.5,0,0,1,.6-.6l6.177-3.377-6.177-3.378a1.5,1.5,0,0,1-.6-.6l-3.378-6.176-3.378,6.176a1.5,1.5,0,0,1-.6.6Zm5.456-4.695h0Z"/><polygon class="c" points="138.079 68.233 148.148 49.823 158.216 68.233 176.627 78.302 158.216 88.371 148.148 106.781 138.079 88.371 119.668 78.302 138.079 68.233"/><path class="d" d="M148.147,108.281h0a1.5,1.5,0,0,1-1.316-.78l-9.857-18.024-18.026-9.858a1.5,1.5,0,0,1,0-2.633l18.026-9.858L146.831,49.1a1.5,1.5,0,0,1,2.633,0l9.858,18.024,18.025,9.858a1.5,1.5,0,0,1,0,2.633l-18.025,9.858L149.464,107.5A1.5,1.5,0,0,1,148.147,108.281ZM122.794,78.3,138.8,87.055a1.5,1.5,0,0,1,.6.6l8.751,16,8.753-16a1.5,1.5,0,0,1,.6-.6l16-8.752-16-8.753a1.5,1.5,0,0,1-.6-.6l-8.753-16-8.751,16a1.5,1.5,0,0,1-.6.6Zm15.285-10.07h0Z"/><polygon class="c" points="97.377 115.7 105.147 101.492 112.918 115.7 127.126 123.471 112.918 131.241 105.147 145.45 97.377 131.241 83.168 123.471 97.377 115.7"/><path class="d" d="M105.147,146.949a1.5,1.5,0,0,1-1.316-.78l-7.56-13.822-13.823-7.56a1.5,1.5,0,0,1,0-2.633L96.271,114.6l7.56-13.824a1.5,1.5,0,0,1,2.633,0l7.559,13.824,13.823,7.559a1.5,1.5,0,0,1,0,2.633l-13.823,7.56-7.559,13.822A1.5,1.5,0,0,1,105.147,146.949ZM86.294,123.471l11.8,6.454a1.493,1.493,0,0,1,.6.6l6.454,11.8,6.455-11.8a1.493,1.493,0,0,1,.6-.6l11.8-6.454-11.8-6.454a1.5,1.5,0,0,1-.6-.6l-6.455-11.8-6.454,11.8a1.5,1.5,0,0,1-.6.6ZM97.377,115.7h0Z"/><polygon class="e" points="94.053 67.399 96.362 63.177 98.672 67.399 102.894 69.709 98.672 72.018 96.362 76.24 94.053 72.018 89.83 69.709 94.053 67.399"/><path class="d" d="M96.362,77.74a1.5,1.5,0,0,1-1.316-.78l-2.1-3.837-3.837-2.1a1.5,1.5,0,0,1,0-2.632l3.837-2.1,2.1-3.837a1.5,1.5,0,0,1,2.633,0l2.1,3.837,3.836,2.1a1.5,1.5,0,0,1,0,2.632l-3.836,2.1-2.1,3.837A1.5,1.5,0,0,1,96.362,77.74Zm-3.406-8.031,1.816.992a1.5,1.5,0,0,1,.6.6l.993,1.816.993-1.816a1.5,1.5,0,0,1,.6-.6l1.816-.992-1.816-.993a1.5,1.5,0,0,1-.6-.6L96.362,66.3l-.993,1.816a1.5,1.5,0,0,1-.6.6Zm1.1-2.31h0Z"/><polygon class="c" points="139.002 145.729 141.433 141.283 143.865 145.729 148.312 148.161 143.865 150.593 141.433 155.039 139.002 150.593 134.555 148.161 139.002 145.729"/><path class="d" d="M141.434,156.539a1.5,1.5,0,0,1-1.317-.78L137.9,151.7l-4.06-2.22a1.5,1.5,0,0,1,0-2.633l4.06-2.221,2.221-4.061a1.5,1.5,0,0,1,2.633,0l2.221,4.061,4.06,2.221a1.5,1.5,0,0,1,0,2.633l-4.06,2.22-2.221,4.061A1.5,1.5,0,0,1,141.434,156.539Zm-3.752-8.378,2.04,1.115a1.5,1.5,0,0,1,.6.6l1.116,2.04,1.115-2.04a1.5,1.5,0,0,1,.6-.6l2.04-1.115-2.04-1.115a1.5,1.5,0,0,1-.6-.6l-1.115-2.04-1.116,2.04a1.5,1.5,0,0,1-.6.6Zm1.32-2.432h0Z"/><polygon class="e" points="170.861 119.909 175.555 111.326 180.249 119.909 188.832 124.603 180.249 129.297 175.555 137.88 170.861 129.297 162.278 124.603 170.861 119.909"/><path class="d" d="M175.555,139.38a1.5,1.5,0,0,1-1.317-.78l-4.483-8.2-8.2-4.483a1.5,1.5,0,0,1,0-2.633l8.2-4.483,4.483-8.2a1.5,1.5,0,0,1,2.633,0l4.483,8.2,8.2,4.483a1.5,1.5,0,0,1,0,2.633l-8.2,4.483-4.483,8.2A1.5,1.5,0,0,1,175.555,139.38ZM165.4,124.6l6.176,3.377a1.5,1.5,0,0,1,.6.6l3.378,6.177,3.378-6.177a1.5,1.5,0,0,1,.6-.6l6.177-3.377-6.177-3.378a1.5,1.5,0,0,1-.6-.6l-3.378-6.176-3.378,6.176a1.5,1.5,0,0,1-.6.6Zm5.456-4.695h0Z"/><polygon class="e" points="138.079 68.233 148.148 49.823 158.216 68.233 176.627 78.302 158.216 88.371 148.148 106.781 138.079 88.371 119.668 78.302 138.079 68.233"/><path class="d" d="M148.147,108.281h0a1.5,1.5,0,0,1-1.316-.78l-9.857-18.024-18.026-9.858a1.5,1.5,0,0,1,0-2.633l18.026-9.858L146.831,49.1a1.5,1.5,0,0,1,2.633,0l9.858,18.024,18.025,9.858a1.5,1.5,0,0,1,0,2.633l-18.025,9.858L149.464,107.5A1.5,1.5,0,0,1,148.147,108.281ZM122.794,78.3,138.8,87.055a1.5,1.5,0,0,1,.6.6l8.751,16,8.753-16a1.5,1.5,0,0,1,.6-.6l16-8.752-16-8.753a1.5,1.5,0,0,1-.6-.6l-8.753-16-8.751,16a1.5,1.5,0,0,1-.6.6Zm15.285-10.07h0Z"/><polygon class="e" points="97.377 115.7 105.147 101.492 112.918 115.7 127.126 123.471 112.918 131.241 105.147 145.45 97.377 131.241 83.168 123.471 97.377 115.7"/><path class="d" d="M105.147,146.949a1.5,1.5,0,0,1-1.316-.78l-7.56-13.822-13.823-7.56a1.5,1.5,0,0,1,0-2.633L96.271,114.6l7.56-13.824a1.5,1.5,0,0,1,2.633,0l7.559,13.824,13.823,7.559a1.5,1.5,0,0,1,0,2.633l-13.823,7.56-7.559,13.822A1.5,1.5,0,0,1,105.147,146.949ZM86.294,123.471l11.8,6.454a1.493,1.493,0,0,1,.6.6l6.454,11.8,6.455-11.8a1.493,1.493,0,0,1,.6-.6l11.8-6.454-11.8-6.454a1.5,1.5,0,0,1-.6-.6l-6.455-11.8-6.454,11.8a1.5,1.5,0,0,1-.6.6ZM97.377,115.7h0Z"/></svg>