<svg xmlns="http://www.w3.org/2000/svg" width="272" height="204" viewBox="0 0 272 204"><defs><style>.a{fill:#d2fffa;}.b{fill:#fff;}.c{fill:#3a36e4;}.d{fill:#7bfff0;}</style></defs><rect class="a" width="272" height="204"/><rect class="b" x="67.191" y="43.46" width="137.619" height="117.081" rx="10.563"/><path class="c" d="M194.246,162.041H77.754A12.078,12.078,0,0,1,65.69,149.977V54.023A12.078,12.078,0,0,1,77.754,41.96H194.246A12.078,12.078,0,0,1,206.31,54.023v95.954A12.078,12.078,0,0,1,194.246,162.041ZM77.754,44.96a9.073,9.073,0,0,0-9.064,9.063v95.954a9.074,9.074,0,0,0,9.064,9.064H194.246a9.074,9.074,0,0,0,9.064-9.064V54.023a9.073,9.073,0,0,0-9.064-9.063Z"/><path class="c" d="M187.02,107.412H84.98a1.5,1.5,0,1,1,0-3H187.02a1.5,1.5,0,0,1,0,3Z"/><path class="c" d="M187.02,86.1H84.98a1.5,1.5,0,1,1,0-3H187.02a1.5,1.5,0,0,1,0,3Z"/><circle class="d" cx="141.161" cy="85.264" r="6.615"/><path class="c" d="M141.161,93.38a8.116,8.116,0,1,1,8.115-8.116A8.125,8.125,0,0,1,141.161,93.38Zm0-13.231a5.116,5.116,0,1,0,5.115,5.115A5.121,5.121,0,0,0,141.161,80.149Z"/><circle class="d" cx="113.848" cy="105.911" r="6.615"/><path class="c" d="M113.849,114.027a8.116,8.116,0,1,1,8.115-8.115A8.125,8.125,0,0,1,113.849,114.027Zm0-13.231a5.116,5.116,0,1,0,5.115,5.116A5.122,5.122,0,0,0,113.849,100.8Z"/><rect class="c" x="67.19" y="61.414" width="137.619" height="3"/><rect class="d" x="141.161" y="126.151" width="49.423" height="19.076" rx="4.326"/><rect class="a" x="82.522" y="125.574" width="49.423" height="19.076" rx="4.326"/><path class="c" d="M163.809,140.8h-.047a1.5,1.5,0,0,1-1.166-.616l-2.091-2.872a1.5,1.5,0,1,1,2.426-1.766l.955,1.312,4.987-6.014a1.5,1.5,0,0,1,2.309,1.914l-6.219,7.5A1.5,1.5,0,0,1,163.809,140.8Z"/><path class="c" d="M110.622,140.224a1.491,1.491,0,0,1-1.06-.439l-6.828-6.826a1.5,1.5,0,0,1,2.121-2.121l6.828,6.826a1.5,1.5,0,0,1-1.061,2.56Z"/><path class="c" d="M103.82,140.224a1.5,1.5,0,0,1-1.06-2.56l6.826-6.826a1.5,1.5,0,0,1,2.121,2.121l-6.826,6.826A1.5,1.5,0,0,1,103.82,140.224Z"/></svg>