<svg xmlns="http://www.w3.org/2000/svg" width="272" height="204" viewBox="0 0 272 204"><defs><style>.a{fill:#f2e1ff;}.b{fill:#e2bfff;}.c{fill:#3a36e4;}</style></defs><rect class="a" width="272" height="204"/><rect class="b" x="73" y="38.815" width="126" height="126" rx="18.16"/><path class="c" d="M136,114.713a1.5,1.5,0,0,1-1.5-1.5V66.757a1.5,1.5,0,0,1,3,0v46.456A1.5,1.5,0,0,1,136,114.713Z"/><path class="c" d="M136,119.519a1.5,1.5,0,0,1-1.061-.439L115.716,99.857a1.5,1.5,0,0,1,2.121-2.121L136,115.9l18.163-18.162a1.5,1.5,0,0,1,2.121,2.121L137.061,119.08A1.5,1.5,0,0,1,136,119.519Z"/><path class="c" d="M171.243,138.743H100.757a1.5,1.5,0,0,1-1.5-1.5V114.816a1.5,1.5,0,0,1,3,0v20.927h67.486V114.816a1.5,1.5,0,1,1,3,0v22.427A1.5,1.5,0,0,1,171.243,138.743Z"/></svg>